<svg xmlns="http://www.w3.org/2000/svg" viewBox="0 0 32 32">
  <rect width="32" height="32" rx="8" fill="#111318"/>
  <path d="M11 22c-1.2-2-1.6-4.3-1-6.6.4-1.7.3-3.1-.3-4.3-.5-1-.2-1.9.6-2.1.9-.2 1.9.6 2.4 1.9.3.8.9.8 1.2 0 .8-2 2.4-3.3 3.6-2.9.7.2.9.9.5 1.7-.4.8-.3 1.6.2 2.4.9 1.4 1.3 3 1 4.7-.3 1.9-1.1 3.6-2.4 5" fill="none" stroke="#e7edf7" stroke-width="1.8" stroke-linecap="round" stroke-linejoin="round"/>
  <circle cx="12.6" cy="13.4" r="1" fill="#e7edf7"/>
  <circle cx="18.4" cy="13.4" r="1" fill="#e7edf7"/>
</svg>
